<svg xmlns="http://www.w3.org/2000/svg" width="256" height="256"><path fill-opacity=".016" d="M0 128.004v128.004l128.25-.254 128.25-.254.254-127.75L257.008 0H0v128.004m.485.496c0 70.4.119 99.053.265 63.672.146-35.38.146-92.98 0-128C.604 29.153.485 58.1.485 128.5" fill="#1976D2" fill-rule="evenodd"/><path fill-opacity=".147" d="M19.539 97.463c1.453 1.904 2.884 5.273 3.181 7.486.504 3.756.714 3.981 3.16 3.375 7.404-1.833 7.62-1.96 7.936-4.635.29-2.457-.322-2.97-7.375-6.184C22.211 95.577 18.334 94 17.824 94c-.509 0 .263 1.558 1.715 3.463m39.197 3.135c-.329.329-.393 1.133-.142 1.787.447 1.163-5.636 29.402-7.079 32.865-.672 1.612.253 1.75 11.73 1.75 11.313 0 12.771-.21 15.842-2.28 6.66-4.488 10.413-14.919 7.438-20.672-2.506-4.845-9.005-6.26-15.949-3.473-1.563.628-1.797.443-1.247-.989.371-.968.957-3.522 1.301-5.673l.626-3.913h-5.962c-3.278 0-6.23.269-6.558.598m167.062 8.36C213.873 110.193 206 117.208 206 126.6c0 13.591 20.645 17.029 31.659 5.272 4.481-4.783 5.804-10.277 3.57-14.825-.951-1.936-3.258-4.539-5.127-5.784-3.884-2.587-3.486-2.868 1.255-.887 1.811.756 4.623 2.989 6.249 4.962l2.956 3.587 4.252-4.937 4.253-4.937-5.284.225c-2.905.123-7.983-.054-11.283-.394s-9.016-.305-12.702.076m-200.791 1.635C17.867 113.689 14 119.209 14 126.304c0 3.251.622 5.076 2.377 6.969 5.449 5.879 20.44 6.273 26.427.695 2.557-2.382 2.899-6.484.614-7.361-3.26-1.251-4.418-.638-4.418 2.336 0 3.449-3.079 6.057-7.151 6.057-4.71 0-6.683-3.289-5.228-8.716.558-2.079 1.226-2.234 10.737-2.5L47.5 123.5l.308-3.708c.169-2.039-.153-4.568-.716-5.619-2.547-4.76-14.788-6.744-22.085-3.58m78.493.303c-8.914 4.127-13.223 12.923-9.78 19.964 2.108 4.312 5.896 6.346 12.918 6.937 10.754.905 20.967-5.792 16.162-10.597-2.153-2.153-4.8-1.437-4.8 1.3 0 5.074-6.135 8.104-11.066 5.465-2-1.071-2.677-6.248-1.134-8.676.497-.781 4.309-1.314 10.735-1.5l9.965-.289.316-3.848c.347-4.225-1.355-6.845-6.014-9.254-3.799-1.965-12.526-1.714-17.302.498m28.503 1.354c-.002 1.513.939 3.692 2.091 4.844 1.691 1.691 2.795 1.962 5.742 1.409 4.676-.877 5.164-1.214 5.164-3.562 0-1.418.693-1.941 2.57-1.941 2.092 0 2.51.418 2.25 2.25-.255 1.792-1.543 2.624-6.32 4.084-13.241 4.048-17.5 7.126-17.5 12.646 0 4.526 3.269 6.541 10.354 6.382 3.38-.076 10.006-.167 14.723-.203l8.577-.065-.037-3.297c-.021-1.813.579-6.692 1.333-10.84 2.492-13.719.838-15.135-17.197-14.724l-11.747.267-.003 2.75m37.733-2.652c-.329.329-.377 1.173-.107 1.877.609 1.587-3.259 21.964-4.669 24.599-.974 1.821-.625 1.926 6.399 1.926 7.07 0 7.424-.109 7.322-2.25-.06-1.238.742-6.229 1.781-11.092 1.431-6.696 2.419-9.189 4.073-10.273 2.629-1.723 5.465-.863 5.465 1.657 0 3.282-3.026 16.303-4.453 19.164L184.153 138h7.892c6.465 0 7.792-.261 7.339-1.443-.305-.793.159-4.891 1.031-9.107 2.177-10.525 2.037-13.089-.87-15.995-2.677-2.678-9.054-3.352-13.98-1.48-1.667.634-2.565.634-2.565 0 0-1.038-12.255-1.387-13.264-.377m-140.287 5.87c-2.098 5.021-1.872 5.532 2.44 5.532 3.656 0 3.928-.21 4.548-3.517.811-4.324.167-5.483-3.047-5.483-1.898 0-2.837.826-3.941 3.468m79.108-.579c-2.479 4.795-2.054 6.111 1.974 6.111 3.738 0 4.408-.784 4.756-5.567.182-2.506-.179-2.978-2.48-3.244-2.138-.247-3.013.309-4.25 2.7m113.892-.452c-1.948 2.973-4.421 11.954-4.437 16.113-.02 5.165 4.063 7.249 7.249 3.7 1.78-1.984 4.739-12.563 4.739-16.944 0-5.426-4.704-7.213-7.551-2.869m-153.786 1.752c-.805 1.271-1.977 4.778-2.603 7.794-.626 3.015-1.395 6.503-1.708 7.75-.474 1.891-.165 2.267 1.865 2.267 3.334 0 6.414-3.597 7.793-9.1 1.631-6.513 1.027-10.324-1.697-10.711-1.42-.202-2.699.498-3.65 2m73.87 9.344c-5.087 5.088-4.558 9.443.979 8.053 1.708-.428 2.698-1.679 3.438-4.344 2.244-8.082 1.001-9.126-4.417-3.709M4.329 139.518C1.948 142.002 0 144.871 0 145.894c0 1.764.317 1.786 6.25.442 11.128-2.521 36.706-2.822 65.121-.767 18.074 1.307 24.932 2.114 22.755 2.678-1.714.444-3.857 1.939-4.763 3.321-4.396 6.709 7.129 12.766 14.002 7.359 3.439-2.704 3.394-6.172-.115-8.992l-2.75-2.21 5.663.636c4.97.558 6.439.269 12-2.362 3.485-1.648 6.9-2.998 7.587-2.998.688-.001 1.25-.451 1.25-1.001 0-.654-18.459-1-53.378-1-56.007 0-58.007-.144-61.574-4.442-1.958-2.359-3.01-1.956-7.719 2.96M132 146.115v3.915l13.75-.187c8.504-.115 14.03-.598 14.485-1.265.496-.729.739-.673.75.172.02 1.637 8.186 1.679 9.815.05.933-.933 1.2-.933 1.2 0 0 .828 2.357 1.2 7.608 1.2h7.609l-.628-2.5c-.514-2.048-.262-2.5 1.392-2.5 1.487 0 2.019.659 2.019 2.5 0 1.833.533 2.5 2 2.5s2-.667 2-2.5c0-1.556.567-2.5 1.5-2.5.825 0 1.5-.692 1.5-1.537 0-1.324-2.154-1.516-15.5-1.381l-15.5.157v3.047c0 1.676-.324 2.723-.72 2.327-.396-.396-.733-1.708-.75-2.916-.026-1.915-.656-2.237-4.902-2.507l-4.873-.31.45 3.06c.573 3.908-.434 3.94-1.899.06-1.608-4.26-5.378-4.135-7.561.25l-1.617 3.25-.064-3.15-.064-3.15h-12v3.915m69.2-2.915c-2.842 2.842-.556 6.8 3.929 6.8 1.5 0 3.391-.662 4.2-1.472 1.296-1.296 1.623-1.29 2.737.051 1.645 1.983 6.895 1.46 8.328-.829 2.755-4.4-5.212-7.819-8.85-3.799-1.02 1.127-2.347 2.042-2.949 2.034-.602-.009-.475-.408.283-.889.758-.48 1.069-1.373.691-1.984-.917-1.485-6.859-1.422-8.369.088m20.8 2.9v3.9h12v-7.8h-12v3.9m-46.89-1.733c-.863 1.04-.773 1.668.378 2.623 1.284 1.066 1.512.86 1.512-1.368 0-2.985-.293-3.179-1.89-1.255m29.4 1.649c.346.559 1.047.758 1.559.441 1.387-.857 1.129-1.457-.628-1.457-.857 0-1.276.457-.931 1.016M215 146c0 .55.45 1 1 1s1-.45 1-1-.45-1-1-1-1 .45-1 1m-189.983 1.286c-1.366.691-2.913 2.478-3.438 3.971-1.905 5.416 5.64 9.932 12.09 7.237 5.899-2.465 6.56-8.29 1.254-11.034-3.446-1.782-6.619-1.838-9.906-.174M195 148c0 1.333.667 2 2 2s2-.667 2-2-.667-2-2-2-2 .667-2 2" fill="#1976D2" fill-rule="evenodd"/><path fill-opacity=".299" d="M18.701 96.25c2.901 3.186 4.299 6.2 4.299 9.272 0 2.566.141 2.63 4.25 1.951 5.451-.902 5.75-1.111 5.75-4.019 0-2.004-1.221-3.044-6.975-5.941-8.094-4.076-10.221-4.443-7.324-1.263m40.681 5.56c.627 1.014-5.921 30.46-7.379 33.185-1.042 1.946-.773 2.005 9.212 1.999 5.657-.003 11.886-.45 13.842-.993 9.578-2.661 15.477-17.558 9.371-23.664-2.273-2.273-3.177-2.516-7.75-2.085-2.848.268-5.933.806-6.856 1.197-1.542.652-1.573.256-.382-4.87L70.737 101H64.81c-3.261 0-5.703.364-5.428.81m-32.406 8.672c-11.865 3.794-16.932 17.728-8.686 23.885 3.386 2.528 14.691 3.455 20.154 1.651 5.928-1.956 8.835-9.018 3.712-9.018-1.318 0-2.091.926-2.507 3.005-.436 2.178-1.589 3.476-4.192 4.717-3.232 1.541-3.86 1.563-6.274.214-2.822-1.577-3.847-5.152-2.742-9.557C27.02 123.073 27.343 123 37 123c9.547 0 9.986-.095 10.536-2.289 2.031-8.091-9.423-13.79-20.56-10.229m80.364-.575c-5.697 1.449-9.775 4.51-12.09 9.078-3.835 7.566-2.538 13.263 3.761 16.521 3.958 2.047 15.175 1.962 19.289-.146 3.785-1.939 4.664-3.086 4.685-6.11.012-1.751-.552-2.25-2.544-2.25-1.407 0-2.302.416-1.987.925 1.139 1.844-1.795 6.032-4.957 7.076-6.408 2.115-10.429-1.861-8.645-8.547l.788-2.954 10.072-.284c9.164-.258 10.12-.467 10.604-2.318.85-3.248-1.289-7.833-4.407-9.445-3.616-1.87-10.444-2.594-14.569-1.546m24.661 1.62c-.002 3.857 2.8 6.473 6.933 6.473 3.471 0 6.805-1.928 5.533-3.2-.946-.946 2.486-3.032 4.02-2.443 1.83.702 1.995 4.039.263 5.329-.687.511-3.95 1.738-7.25 2.725-9.109 2.724-12.439 4.57-14.125 7.832-2.176 4.207-1.044 7.579 3.128 9.323 4.347 1.816 7.651 1.814 12.007-.006 2.043-.853 3.683-1.057 4.027-.5.32.517 3.254.94 6.522.94H159l.036-3.25c.019-1.787.687-5.95 1.484-9.25 1.936-8.017 1.847-10.826-.433-13.639-1.833-2.264-2.452-2.361-14.999-2.361-12.478 0-13.086.094-13.087 2.027m37.999.863c0 4.741-3.787 22.649-5.133 24.27-.913 1.1.247 1.34 6.479 1.34 5.757 0 7.473-.309 7.1-1.28-.27-.704.426-5.767 1.548-11.25 2.036-9.959 3.461-12.47 7.075-12.47 3.332 0 3.683 2.203 1.832 11.5-.985 4.95-2.266 9.781-2.846 10.736-.58.955-1.055 1.968-1.055 2.25 0 .283 3.15.514 7 .514 6.97 0 7-.012 6.999-2.75 0-1.512.74-6.482 1.646-11.044 1.385-6.977 1.436-8.685.325-10.762-1.864-3.482-7.877-5.151-13.305-3.693-2.506.673-4.298.746-4.498.184-.184-.514-3.221-.935-6.75-.935H170v3.39m49.239-2.055c-14.858 5.389-17.844 22.213-4.824 27.186 9.79 3.739 23.049-1.679 26.518-10.836 1.546-4.078 1.31-8.893-.566-11.571-3.588-5.122-13.807-7.434-21.128-4.779m19.692.278c1.583.666 3.903 2.596 5.155 4.29 2.186 2.956 2.354 3.009 4.203 1.338 1.06-.958 2.725-2.866 3.7-4.241l1.773-2.5-8.855-.049c-7.822-.043-8.519.093-5.976 1.162m-208.266 2.205c-.949 1.049-2.137 3.342-2.641 5.097l-.915 3.19 4.696-.302 4.695-.303V116c0-3.778-.33-4.547-2.055-4.794-1.131-.162-2.832.564-3.78 1.612m79.624-1.039c-1.059.692-4.289 7.235-4.289 8.689 0 .293 2.016.532 4.481.532 3.895 0 4.56-.314 5.083-2.398 1.411-5.624-1.448-9.322-5.275-6.823m111.975 2.613c-2.317 2.945-4.57 12.629-4.097 17.608.294 3.092.693 3.535 3.418 3.801 1.735.169 3.584-.3 4.225-1.073 1.85-2.229 4.33-13.381 3.998-17.977-.272-3.754-.616-4.287-2.942-4.556-1.852-.215-3.218.438-4.602 2.197m-152.744.855c-1.833 1.589-3.03 4.169-4.06 8.753-.804 3.575-1.695 7.512-1.98 8.75-.429 1.865-.096 2.25 1.945 2.25 3.946 0 7.485-3.89 9.099-10 1.946-7.369 1.846-9.732-.464-10.968-1.535-.821-2.484-.567-4.54 1.215M142.4 125.4c-3.798 3.798-4.36 7.016-1.493 8.55 2.841 1.52 5.743-1.512 6.892-7.2 1.201-5.949-.4-6.349-5.399-1.35M6.347 137.831c-3.485 3.183-6.857 7.992-6.12 8.729.274.274 4.497-.207 9.385-1.07 12.685-2.238 37.422-2.051 72.888.55l30 2.201 7-3.371 7-3.37L72 141c-56.439-.518-56.336-.51-61.053-4.605-1.329-1.154-1.991-.947-4.6 1.436m126.653 8v3.831l5.25-.098 5.25-.099v-3.469c0-2.6-.471-3.559-1.88-3.831-1.034-.199-2.306.245-2.826.987-.737 1.05-1.058 1.072-1.453.098-.279-.687-1.37-1.25-2.424-1.25-1.556 0-1.917.722-1.917 3.831m13.305-.344c-1.852 3.883-1.369 5.208 1.344 3.689 1.165-.651 2.433-.667 3.596-.045 2.97 1.59 3.816.065 2.036-3.669-2.158-4.525-4.811-4.515-6.976.025M156 146c0 2.784.431 4 1.417 4 .779 0 1.623-.562 1.875-1.25.366-1 .723-1 1.783 0 2.458 2.318 3.937 1.469 3.484-2a196.744 196.744 0 01-.492-4c-.037-.412-1.867-.75-4.067-.75h-4v4m10.39-2.573c-.302.785-.4 2.468-.219 3.74.391 2.746 3.829 3.869 3.829 1.251 0-1.611.124-1.616 1.829-.073 1.006.91 2.356 1.655 3 1.655 1.521 0 1.506-2.265-.025-3.796-.929-.929-.761-1.526.75-2.668 1.878-1.421 1.857-1.474-.604-1.504-1.402-.018-3.09.508-3.75 1.168-.933.933-1.2.933-1.2 0 0-1.686-2.947-1.501-3.61.227M178 146v4h8v-8h-8v4m9-2.5c0 .825.675 1.5 1.5 1.5.933 0 1.5.944 1.5 2.5s.567 2.5 1.5 2.5 1.5-.944 1.5-2.5.567-2.5 1.5-2.5c.825 0 1.5-.675 1.5-1.5 0-1.111-1.167-1.5-4.5-1.5s-4.5.389-4.5 1.5m14.2-.3c-1.862 1.862-1.432 3.602 1.341 5.419 2.058 1.348 3.019 1.447 5.056.519 3.159-1.44 2.165-3.367-1.289-2.501-1.935.486-2.453.302-2.101-.746.295-.877 1.527-1.262 3.334-1.043 2.528.307 2.71.16 1.541-1.25-1.561-1.88-6.167-2.113-7.882-.398m11 0c-3.515 3.515 1.423 8.204 6.3 5.982 4.416-2.012 2.617-7.182-2.5-7.182-1.43 0-3.14.54-3.8 1.2m9.99 2.55l.31 3.75h11v-3.486c0-2.617-.469-3.577-1.88-3.849-1.034-.199-2.306.245-2.826.987-.737 1.05-1.058 1.072-1.453.098-.279-.687-1.622-1.25-2.985-1.25-2.251 0-2.448.342-2.166 3.75m-7.19-.309c0 .857.45 1.559 1 1.559s1-.423 1-.941-.45-1.219-1-1.559c-.55-.34-1 .084-1 .941m-187.5 1.3c-2.57.589-6.5 4.204-6.5 5.979 0 .754 1.105 2.475 2.455 3.825C28.198 161.289 38 158.966 38 153.098c0-4.423-5.202-7.572-10.5-6.357m167.75 1.509c.63 1.892 3.75 2.161 3.75.323 0-.927-.855-1.573-2.083-1.573-1.222 0-1.912.517-1.667 1.25m-103.615 1.823c-6.795 5.344 1.06 13.171 9.627 9.591 1.95-.815 3.839-2.406 4.197-3.535 2.007-6.323-7.943-10.682-13.824-6.056" fill="#1976D2" fill-rule="evenodd"/><path fill-opacity=".647" d="M21.636 99.669c1.3 2.569 2.364 5.524 2.364 6.568 0 1.339.515 1.745 1.75 1.378.962-.286 2.988-.815 4.5-1.176 1.957-.467 2.75-1.284 2.75-2.833 0-1.684-1.474-2.904-6.519-5.391C22.896 96.447 19.807 95 19.617 95c-.19 0 .719 2.101 2.019 4.669m118.114 10.047c-4.262.202-7.75.778-7.75 1.279 0 2.159 2.453 6.014 4.174 6.56 3.341 1.06 7.677-.493 8.015-2.871.44-3.091 6.169-3.175 6.609-.096.408 2.856-.952 3.695-10.986 6.773-6.209 1.904-9.275 3.413-10.75 5.287-5.993 7.62 1.921 14.371 12.598 10.746 3.315-1.125 4.878-1.279 5.136-.506.216.649 2.835 1.112 6.287 1.112H159v-3.435c0-1.889.676-6.646 1.501-10.571 1.621-7.705 1.214-11.551-1.366-12.905-2.34-1.229-10.404-1.8-19.385-1.373m81.189.649c-6.447 1.739-10.875 5.237-13.157 10.395-2.639 5.966-1.79 10.148 2.897 14.263 3.497 3.07 3.869 3.163 11.219 2.8 6.319-.313 8.313-.854 11.815-3.208 4.497-3.023 8.287-9.378 8.287-13.896 0-4.02-5.176-9.274-10.442-10.6-5.218-1.314-4.798-1.324-10.619.246m-50.545 1.221c.642 1.672-2.746 20.324-4.388 24.164-.942 2.201-.822 2.25 5.515 2.25 6.053 0 6.479-.148 6.478-2.25-.001-4.659 3.35-19.319 4.801-21 1.613-1.87 6.688-2.387 7.679-.783.8 1.294-2.293 17.815-3.984 21.283l-1.342 2.75h6.892c5.179 0 6.77-.317 6.402-1.277-.269-.702.378-5.507 1.439-10.678 2.063-10.058 1.7-13.126-1.772-14.984-2.536-1.357-10.662-1.373-13.18-.026-1.333.714-1.934.714-1.934 0 0-.609-2.719-1.035-6.607-1.035-5.621 0-6.516.237-5.999 1.586m52.161 1.768c-1.575 1.575-2.93 4.947-4.099 10.197-1.53 6.881-1.569 8.157-.316 10.389 1.903 3.39 4.073 3.647 7.27.861 2.115-1.843 2.973-4.036 4.305-11.013 1.596-8.353 1.589-8.795-.18-10.75-2.398-2.649-4.091-2.572-6.98.316m-78.697 10.096c-3.865 2.627-4.858 4.295-4.858 8.163 0 2.954 2.284 4.034 5.467 2.584 1.73-.788 2.625-2.398 3.436-6.181 1.763-8.22 1.601-8.402-4.045-4.566M5.316 139.25c-1.692 1.787-3.619 4.305-4.282 5.595-1.072 2.084-1.002 2.284.63 1.805 15.61-4.582 42.499-4.47 98.378.408l11.542 1.008 6.458-2.987 6.458-2.987-52-.068c-48.615-.064-52.269-.19-56.127-1.942-2.269-1.03-4.433-2.371-4.809-2.978-1.163-1.882-3.048-1.234-6.248 2.146M133 145.714c0 1.807.45 3.286 1 3.286s1-.505 1-1.122c0-.752.521-.69 1.576.185 1.306 1.084 1.748 1.062 2.576-.127.763-1.095 1.121-1.14 1.507-.186.941 2.319 2.341 1.272 2.341-1.75 0-2.333-.444-3-2-3-1.1 0-2 .45-2 1s-.45 1-1 1-1-.579-1-1.286c0-.707-.9-1.285-2-1.285-1.594 0-2 .666-2 3.285m16.229-3.045c-.699.282-1.909 1.746-2.69 3.255l-1.418 2.743h4.44c2.441 0 4.439-.173 4.439-.383 0-.579-3.018-6.296-3.276-6.205a79.33 79.33 0 00-1.495.59m6.77 3.081c.001 3.295 2.21 4.588 3.418 2 .466-1 .7-1 1.166 0 .321.688 1.473 1.25 2.559 1.25 1.325 0 1.722-.411 1.204-1.249-.424-.687-.788-2.1-.809-3.141-.029-1.493-.828-1.915-3.788-2.001-3.587-.104-3.75.033-3.75 3.141m11.001-.285c0 3.552 2.153 4.992 3.417 2.285.466-1 .7-1 1.166 0 .321.688 1.501 1.25 2.623 1.25 1.691 0 1.828-.254.805-1.487-.679-.818-.953-2.222-.608-3.121.494-1.288.166-1.513-1.55-1.064-1.197.313-3.004.127-4.015-.415-1.623-.868-1.838-.57-1.838 2.552m14.25-2.676c-2.852.296-3.25.697-3.25 3.274 0 2.812.181 2.931 4.25 2.787 2.984-.105 3.431-.274 1.5-.566-1.512-.229-2.75-.807-2.75-1.284s1.238-1.055 2.75-1.284l2.75-.416-3-.268-3-.269 3-.653c3.753-.816 2.121-1.774-2.25-1.321m6.116.427c-.266.431.218.784 1.075.784.996 0 1.559.902 1.559 2.5 0 1.556.567 2.5 1.5 2.5.825 0 1.5-.878 1.5-1.95 0-1.073.747-2.369 1.661-2.88 1.275-.713.677-1.023-2.575-1.333-2.33-.222-4.453-.052-4.72.379m16.634-.419c-3.073.966-4.004 2.328-2.944 4.308 1.113 2.079 5.464 2.537 7.944.835 1.189-.816.982-.975-1-.765-1.375.145-3.07-.091-3.766-.525-2.016-1.255-.351-2.718 2.327-2.045 1.357.34 2.439.172 2.439-.38 0-1.22-2.967-2.067-5-1.428m19 2.617c0 3.103.226 3.341 3.049 3.199 1.677-.085 3.47-.82 3.985-1.633.788-1.247.938-1.205.951.27.008.963.465 1.75 1.015 1.75.55 0 1-1.561 1-3.469 0-2.882-.296-3.359-1.75-2.823-.963.356-2.088 1.129-2.5 1.719-.534.764-.966.764-1.5 0-.412-.59-1.537-1.363-2.5-1.719-1.447-.533-1.75-.065-1.75 2.706m-11.362-.914c-1.052 2.744.449 4.5 3.847 4.5 3.68 0 5.86-1.936 4.925-4.373-.829-2.162-7.951-2.265-8.772-.127m2.808.587c-1.03 1.668 1.287 3.58 2.667 2.2 1.154-1.154.432-3.287-1.113-3.287-.485 0-1.184.489-1.554 1.087m-190.223 3.47c-2.211 1.548-2.879 4.863-1.437 7.13.415.654 2.061 1.685 3.658 2.292 5.926 2.253 12.394-1.504 11.147-6.474-1.075-4.282-8.976-6.025-13.368-2.948M196 148c0 .55.702 1 1.559 1s1.281-.45.941-1c-.34-.55-1.041-1-1.559-1s-.941.45-.941 1m-104.777 2.557c-4.712 3.3-1.098 9.443 5.554 9.443 7.029 0 10.735-5.417 6.394-9.345-2.321-2.101-9.01-2.156-11.948-.098" fill="#1976D2" fill-rule="evenodd"/></svg>